<?xml version="1.0" encoding="UTF-8" standalone="no"?>
<svg
   width="300.40359"
   height="52.086609"
   viewBox="0 0 30040357 4909163.2"
   version="1.1"
   id="svg453"
   sodipodi:docname="metromega-logo-full-path.svg"
   inkscape:version="1.1.2 (0a00cf5339, 2022-02-04)"
   inkscape:export-filename="/home/art/Pictures/metromega/metromega-logo-dark.png"
   inkscape:export-xdpi="40.639999"
   inkscape:export-ydpi="40.639999"
   xmlns:inkscape="http://www.inkscape.org/namespaces/inkscape"
   xmlns:sodipodi="http://sodipodi.sourceforge.net/DTD/sodipodi-0.dtd"
   xmlns="http://www.w3.org/2000/svg"
   xmlns:svg="http://www.w3.org/2000/svg">
  <defs
     id="defs457" />
  <sodipodi:namedview
     id="namedview455"
     pagecolor="#ffffff"
     bordercolor="#666666"
     borderopacity="1.0"
     inkscape:pageshadow="2"
     inkscape:pageopacity="0.0"
     inkscape:pagecheckerboard="0"
     showgrid="false"
     units="px"
     width="5cm"
     inkscape:snap-to-guides="true"
     inkscape:snap-grids="false"
     inkscape:zoom="1.6528621"
     inkscape:cx="103.75941"
     inkscape:cy="35.695658"
     inkscape:window-width="1920"
     inkscape:window-height="978"
     inkscape:window-x="0"
     inkscape:window-y="56"
     inkscape:window-maximized="1"
     inkscape:current-layer="svg453"
     inkscape:snap-bbox="true"
     inkscape:bbox-paths="true"
     inkscape:snap-page="true"
     inkscape:document-units="cm"
     fit-margin-top="0"
     fit-margin-left="0"
     fit-margin-right="0"
     fit-margin-bottom="0" />
  <path
     style="fill:#2576e5;fill-opacity:1;stroke:#ffffff;stroke-width:0.220894"
     d="m 4054726.8,3485879.3 c 67433.5,220334.7 250474.9,196185.9 375624.7,93563.8 308288.1,-274654.6 709703.9,-851140.3 452795.3,-1681239.3 C 4667988.3,1194959.8 3772714.1,745233.79 3772714.1,745233.79 H 4816366 c 0,0 538882,582525.01 587054.5,1267654.01 61013.1,866223 -298684.6,1412531 -716158.6,1768667.7 -391779.6,335025.3 -764296.5,434623.2 -764296.5,434623.2 L 3160957.3,1808210.8 2398949.2,4216178.7 c 0,0 -372516.7,-99597.9 -764296.6,-434623.2 C 1217178.7,3425418.8 857480.9,2879110.8 918494,2012887.8 966667,1327758.8 1505548.6,745233.79 1505548.6,745233.79 h 1043651.9 c 0,0 -895201.6,449726.01 -1110432.4,1152970.01 -256908.5,830005 144507.2,1406490.1 452795.3,1681239.3 125244,102622.1 308286.1,126770.9 375625,-93563.8 231216.4,-703243.5 893674.1,-2718184.51 893674.1,-2718184.51 0,0 662458.2,2015614.01 893674.6,2718184.51 z"
     id="path451" />
  <rect
     style="fill:#000000;fill-opacity:0;stroke:none;stroke-width:122969;stroke-opacity:1"
     id="rect2509"
     width="29917388"
     height="5085691.5"
     x="61484.5"
     y="-62140.207" />
  <g
     id="g7200"
     transform="matrix(1.1827189,0,0,1.1827189,1261484.7,84072.793)">
    <g
       aria-label="metromega"
       id="text7373"
       style="font-size:3.1832e+06px;line-height:1.25;font-family:Mona-Sans;-inkscape-font-specification:Mona-Sans;fill:#e3dedb;stroke-width:79580.1">
      <path
         d="m 5030806.2,2852415.2 h 397900 L 5632431,1887905.6 c 57297.6,-283304.8 245106.4,-436098.3 461564,-436098.3 241923.2,0 318320,181442.3 254656,487029.5 l -190992,913578.4 h 397900 l 200541.6,-961326.3 c 57297.6,-267388.8 229190.4,-439281.6 458380.8,-439281.6 251472.8,0 324686.4,184625.6 261022.4,487029.5 l -190992,913578.4 h 394716.8 l 206908,-980425.6 c 105045.6,-493396 -105045.6,-744868.8 -477480,-744868.8 -245106.4,0 -480663.2,120961.7 -611174.4,372434.5 h -25465.6 c -35015.2,-235556.8 -219640.8,-372434.5 -471113.6,-372434.5 -226007.2,0 -439281.6,117778.5 -557060,308770.5 h -22282.4 l 44564.8,-276938.5 h -378800.8 z"
         id="path12911" />
      <path
         d="m 8863378.6,2884247.2 c 407449.6,0 738502.4,-226007.2 814899.2,-563426.4 h -375617.6 c -50931.2,149610.4 -206908,257839.2 -410632.8,257839.2 -241923.2,0 -388350.4,-184625.5 -353335.2,-490212.7 h 1184150.4 c 124144.8,-598441.6 -140060.8,-961326.5 -649372.8,-961326.5 -528411.2,0 -894479.2,401083.2 -916761.6,996341.7 -12732.8,458380.7 248289.6,760784.7 706670.4,760784.7 z m 175076,-1457905.6 c 222824,0 359701.6,149610.4 337419.2,394716.9 h -783067.2 c 60480.8,-254656 232373.6,-394716.9 445648,-394716.9 z"
         id="path12913" />
      <path
         d="m 10467707,2852415.2 h 292854 l 66848,-324686.4 h -178260 c -108228,0 -168709,-28648.8 -146427,-146427.2 l 190992,-900845.5 h 353335 l 66848,-321503.3 h -353336 l 108229,-518861.55 -401083,41381.6 -98679,477479.95 h -308771 l -66846.9,321503.3 h 305586.9 l -194175,932677.5 c -60481,286488 73214,439281.6 362885,439281.6 z"
         id="path12915" />
      <path
         d="m 11066147,2852415.2 h 391534 l 175076,-833998.3 c 82763,-350152 299221,-493396 525228,-496579.2 50931,0 105045,6366.3 133694,22282.3 l 82763,-397900 c -35015,-9549.5 -85946,-15916 -140060,-15916 -203725,0 -394717,127328.1 -493396,334236.1 h -15916 l 44564,-305587.3 h -353335 z"
         id="path12917" />
      <path
         d="m 13052458,2884247.2 c 534778,0 897663,-397900 919945,-1005891.1 15916,-474296.8 -270572,-754418.5 -716220,-754418.5 -537961,0 -900845,397900.1 -923128,1005891.2 -15916,480663.2 276939,754418.4 719403,754418.4 z m 25466,-324686.4 c -219641,0 -359702,-149610.3 -350152,-432915.2 15916,-410632.7 216458,-678021.5 506129,-678021.5 216457,0 356518,155976.7 346969,436098.4 -12733,404266.3 -213275,674838.3 -502946,674838.3 z"
         id="path12919" />
      <path
         d="m 14109278,2852415.2 h 397900 l 203725,-964509.6 c 57298,-283304.8 245106,-436098.3 461564,-436098.3 241923,0 318320,181442.3 254656,487029.5 l -190992,913578.4 h 397900 l 200542,-961326.3 c 57297,-267388.8 229190,-439281.6 458380,-439281.6 251473,0 324687,184625.6 261023,487029.5 l -190992,913578.4 h 394717 l 206908,-980425.6 c 105045,-493396 -105046,-744868.8 -477480,-744868.8 -245107,0 -480664,120961.7 -611175,372434.5 h -25465 c -35016,-235556.8 -219641,-372434.5 -471114,-372434.5 -226007,0 -439282,117778.5 -557060,308770.5 h -22282 l 44564,-276938.5 h -378800 z"
         id="path12921" />
      <path
         d="m 17941851,2884247.2 c 407449,0 738502,-226007.2 814899,-563426.4 h -375618 c -50931,149610.4 -206908,257839.2 -410633,257839.2 -241923,0 -388350,-184625.5 -353335,-490212.7 h 1184151 c 124144,-598441.6 -140061,-961326.5 -649373,-961326.5 -528411,0 -894479,401083.2 -916762,996341.7 -12733,458380.7 248290,760784.7 706671,760784.7 z m 175076,-1457905.6 c 222824,0 359701,149610.4 337419,394716.9 h -783067 c 60480,-254656 232373,-394716.9 445648,-394716.9 z"
         id="path12923" />
      <path
         d="m 19632126,3412658.5 c 423365,0 748052,-175076 856281,-693937.7 l 324686,-1559768 h -375618 l -85946,315136.8 h -22282 c -47748,-206908 -238740,-346968.8 -493396,-346968.8 -448832,0 -744869,353335.3 -792617,919944.8 -35015,439281.6 184625,697120.9 566609,697120.9 226008,0 420183,-108228.9 512496,-273755.3 h 19099 l -63664,296037.6 c -50931,248289.7 -200542,359701.7 -413816,359701.7 -203725,0 -334236,-92312.9 -343786,-238740 h -375617 c -3184,315136.7 273755,525228 687571,525228 z m 152793,-967692.9 c -197358,0 -356518,-124144.8 -331052,-420182.3 25465,-366068 210091,-588892 487029,-588892 238740,0 378801,190992 327870,439281.6 l -38199,178259.2 c -47748,213274.4 -206908,391533.5 -445648,391533.5 z"
         id="path12925" />
      <path
         d="m 21478380,2884247.2 c 254656,0 445648,-120961.6 547511,-302404 h 22282 l -57298,270572 h 397900 l 353336,-1693462.4 h -385168 l -82763,337419.3 h -22282 c -44565,-210091.2 -226007,-369251.3 -496579,-369251.3 -452015,0 -770335,378800.9 -821266,993158.4 -44565,461564 175076,763968 544327,763968 z m 197359,-324686.4 c -210092,0 -343786,-146427.2 -334236,-420182.3 12732,-407449.6 222824,-687571.2 509312,-687571.2 251472,0 385167,219640.8 334236,477480 l -47748,232373.5 c -47748,226007.2 -222824,397900 -461564,397900 z"
         id="path12927" />
    </g>
  </g>
</svg>
